<svg width="24" height="24" viewBox="0 0 24 24" fill="none" xmlns="http://www.w3.org/2000/svg">
<path fill-rule="evenodd" clip-rule="evenodd" d="M7.30665 0L0.169922 9.82255L3.10738 21.6036L16.695 24L23.8317 14.1775L20.895 2.39636L7.30665 0Z" fill="#A52466"/>
<mask id="mask0_21_520" style="mask-type:luminance" maskUnits="userSpaceOnUse" x="0" y="0" width="11" height="22">
<path d="M7.30665 0L10.2441 11.7811L3.10738 21.6036L0.169922 9.82254L7.30665 0Z" fill="white"/>
</mask>
<g mask="url(#mask0_21_520)">
<path d="M13.7583 12.2189L0.169189 9.82257" stroke="url(#paint0_linear_21_520)" stroke-width="0.21" stroke-miterlimit="16" stroke-linecap="round" stroke-linejoin="round"/>
</g>
<mask id="mask1_21_520" style="mask-type:luminance" maskUnits="userSpaceOnUse" x="7" y="0" width="17" height="15">
<path d="M20.8948 2.39636L23.8315 14.1775L10.2439 11.7811L7.3064 0L20.8948 2.39636Z" fill="white"/>
</mask>
<g mask="url(#mask1_21_520)">
<path d="M13.7568 12.219L20.8936 2.39569" stroke="url(#paint1_linear_21_520)" stroke-width="0.21" stroke-miterlimit="16" stroke-linecap="round" stroke-linejoin="round"/>
</g>
<path fill-rule="evenodd" clip-rule="evenodd" d="M1.84619 16.5439C1.84619 16.5439 3.5931 17.3577 4.89855 17.4057C7.45128 17.4996 8.84765 17.2385 10.8782 16.525C14.3211 15.3163 14.8011 14.6792 14.8011 14.6792C14.8011 14.6792 15.3058 15.3621 16.332 15.8901C17.5378 16.5097 18.6462 16.7068 19.6142 16.7221C21.1866 16.7461 22.1007 16.5607 22.1007 16.5607L16.6949 23.9999L3.10728 21.6036L1.84619 16.5439Z" fill="url(#paint2_linear_21_520)"/>
<path d="M12.001 17.5193C15.0492 17.5193 17.5202 15.0482 17.5202 12C17.5202 8.95177 15.0492 6.48071 12.001 6.48071C8.95275 6.48071 6.48169 8.95177 6.48169 12C6.48169 15.0482 8.95275 17.5193 12.001 17.5193Z" fill="url(#paint3_radial_21_520)"/>
<path fill-rule="evenodd" clip-rule="evenodd" d="M3.10728 21.6036L1.84619 16.544C1.84619 16.544 2.66001 17.6676 3.14655 17.9316C3.9371 18.3615 5.47674 18.3433 5.47674 18.3433L3.10728 21.6036Z" fill="black" fill-opacity="0.2"/>
<path fill-rule="evenodd" clip-rule="evenodd" d="M5.47518 18.3426C5.47518 18.3426 10.1901 19.4648 13.4665 19.0539C14.7668 18.891 16.0621 17.8044 16.881 17.7121C17.673 17.6226 18.5857 18.1259 19.5145 17.8306C20.7363 17.4415 22.0992 16.5601 22.0992 16.5601L16.6948 24.0001L3.10718 21.6037L5.47518 18.3426Z" fill="black" fill-opacity="0.2"/>
<path fill-rule="evenodd" clip-rule="evenodd" d="M20.8948 2.39636L23.8315 14.1775L10.2439 11.7811L7.3064 0L20.8948 2.39636Z" fill="white" fill-opacity="0.32"/>
<path fill-rule="evenodd" clip-rule="evenodd" d="M7.30665 0L10.2441 11.7811L3.10738 21.6036L0.169922 9.82254L7.30665 0Z" fill="white" fill-opacity="0.16"/>
<path fill-rule="evenodd" clip-rule="evenodd" d="M23.8315 14.1774L16.6948 24L3.10718 21.6036L10.2439 11.7811L23.8315 14.1774Z" fill="black" fill-opacity="0.08"/>
<defs>
<linearGradient id="paint0_linear_21_520" x1="0.170259" y1="9.82293" x2="13.758" y2="12.2191" gradientUnits="userSpaceOnUse">
<stop stop-opacity="0.12"/>
<stop offset="0.19" stop-opacity="0.0696471"/>
<stop offset="0.4" stop-opacity="0.0211765"/>
<stop offset="1" stop-opacity="0"/>
</linearGradient>
<linearGradient id="paint1_linear_21_520" x1="20.8947" y1="2.39624" x2="13.7569" y2="12.2189" gradientUnits="userSpaceOnUse">
<stop stop-opacity="0.12"/>
<stop offset="0.19" stop-opacity="0.0696471"/>
<stop offset="0.4" stop-opacity="0.0211765"/>
<stop offset="1" stop-opacity="0"/>
</linearGradient>
<linearGradient id="paint2_linear_21_520" x1="13.3095" y1="19.8703" x2="13.4031" y2="15.0267" gradientUnits="userSpaceOnUse">
<stop stop-opacity="0.16"/>
<stop offset="0.49" stop-opacity="0.118588"/>
<stop offset="1" stop-opacity="0"/>
</linearGradient>
<radialGradient id="paint3_radial_21_520" cx="0" cy="0" r="1" gradientUnits="userSpaceOnUse" gradientTransform="translate(12.0009 12.0001) scale(5.51895)">
<stop stop-color="#C4739C"/>
<stop offset="0.94" stop-color="#A34574"/>
<stop offset="1" stop-color="#99406D"/>
</radialGradient>
</defs>
</svg>
